<svg xmlns="http://www.w3.org/2000/svg" width="503.599" height="271.758" viewBox="0 0 503.599 271.758">
  <g id="Figure" transform="translate(0 -0.04)">
    <path id="Caminho_1" data-name="Caminho 1" d="M531.6,315.786a80.086,80.086,0,0,1-3.015,21.834,79.264,79.264,0,0,1-8.483,19.492c0,22.054-14.888,41.116-36.5,50.184a73.646,73.646,0,0,1-28.495,5.635H123.6A91.989,91.989,0,0,1,76,400.007a81.773,81.773,0,0,1-10.93-7.875C50.1,379.269,40.819,361.493,40.819,341.86A79.692,79.692,0,0,1,74.464,226.081a76.822,76.822,0,0,1,11.23-4.015q2.038-.555,4.12-.995a77.2,77.2,0,0,1,11.23-1.541q2.047-.128,4.116-.145h.757c1.523,0,3.033.053,4.534.141l.493-.836q.907-1.514,1.858-3,1.717-2.7,3.6-5.327,1.972-2.769,4.116-5.45l.365-.44q1.215-1.514,2.483-2.993,3.962-4.618,8.364-8.958c31.743-31.114,81.474-51.143,137.38-51.143,43.5,0,83.265,12.128,113.723,32.166a76.676,76.676,0,0,1,37.832-9.944c43.026,0,77.917,35.38,77.917,79.022a81.408,81.408,0,0,1-.44,8.267A79.237,79.237,0,0,1,531.6,315.786Z" transform="translate(-28 -141.34)" fill="#6c63ff" opacity="0.1"/>
    <path id="Caminho_2" data-name="Caminho 2" d="M253.024,257.52v8.958H244.66Q248.591,261.865,253.024,257.52Z" transform="translate(-149.285 -206.354)" fill="#6c63ff" opacity="0.2"/>
    <rect id="Retângulo_4" data-name="Retângulo 4" width="11.23" height="11.23" transform="translate(107.86 48.894)" fill="#6c63ff" opacity="0.2"/>
    <rect id="Retângulo_5" data-name="Retângulo 5" width="11.23" height="11.23" transform="translate(123.205 48.894)" fill="#6c63ff" opacity="0.2"/>
    <rect id="Retângulo_6" data-name="Retângulo 6" width="11.23" height="11.23" transform="translate(138.555 48.894)" fill="#6c63ff" opacity="0.2"/>
    <rect id="Retângulo_7" data-name="Retângulo 7" width="11.23" height="11.23" transform="translate(153.901 48.894)" fill="#6c63ff" opacity="0.2"/>
    <rect id="Retângulo_8" data-name="Retângulo 8" width="11.23" height="11.23" transform="translate(169.251 48.894)" fill="#6c63ff" opacity="0.2"/>
    <rect id="Retângulo_9" data-name="Retângulo 9" width="11.23" height="11.23" transform="translate(184.601 48.894)" fill="#6c63ff"/>
    <rect id="Retângulo_10" data-name="Retângulo 10" width="11.23" height="11.23" transform="translate(199.947 48.894)" fill="#6c63ff" opacity="0.2"/>
    <rect id="Retângulo_11" data-name="Retângulo 11" width="11.23" height="11.23" transform="translate(215.297 48.894)" fill="#6c63ff" opacity="0.2"/>
    <rect id="Retângulo_12" data-name="Retângulo 12" width="11.23" height="11.23" transform="translate(230.643 48.894)" fill="#6c63ff" opacity="0.2"/>
    <rect id="Retângulo_13" data-name="Retângulo 13" width="11.23" height="11.23" transform="translate(245.993 48.894)" fill="#6c63ff"/>
    <rect id="Retângulo_14" data-name="Retângulo 14" width="11.23" height="11.23" transform="translate(261.343 48.894)" fill="#6c63ff" opacity="0.2"/>
    <rect id="Retângulo_15" data-name="Retângulo 15" width="11.23" height="11.23" transform="translate(276.688 48.894)" fill="#6c63ff" opacity="0.2"/>
    <rect id="Retângulo_16" data-name="Retângulo 16" width="11.23" height="11.23" transform="translate(292.038 48.894)" fill="#6c63ff" opacity="0.2"/>
    <rect id="Retângulo_17" data-name="Retângulo 17" width="11.23" height="11.23" transform="translate(307.389 48.894)" fill="#6c63ff" opacity="0.2"/>
    <rect id="Retângulo_18" data-name="Retângulo 18" width="11.23" height="11.23" transform="translate(322.734 48.894)" fill="#6c63ff" opacity="0.2"/>
    <rect id="Retângulo_19" data-name="Retângulo 19" width="11.23" height="11.23" transform="translate(338.084 48.894)" fill="#6c63ff" opacity="0.2"/>
    <rect id="Retângulo_20" data-name="Retângulo 20" width="11.23" height="11.23" transform="translate(353.43 48.894)" fill="#6c63ff"/>
    <rect id="Retângulo_21" data-name="Retângulo 21" width="11.23" height="11.23" transform="translate(368.78 48.894)" fill="#6c63ff"/>
    <rect id="Retângulo_22" data-name="Retângulo 22" width="11.23" height="11.23" transform="translate(384.13 48.894)" fill="#6c63ff" opacity="0.2"/>
    <rect id="Retângulo_23" data-name="Retângulo 23" width="11.23" height="11.23" transform="translate(399.476 48.894)" fill="#6c63ff" opacity="0.2"/>
    <rect id="Retângulo_24" data-name="Retângulo 24" width="11.23" height="11.23" transform="translate(414.826 48.894)" fill="#6c63ff"/>
    <rect id="Retângulo_25" data-name="Retângulo 25" width="11.23" height="11.23" transform="translate(430.172 48.894)" fill="#6c63ff"/>
    <path id="Caminho_3" data-name="Caminho 3" d="M224.221,298.08v5.327h-3.6Q222.337,300.686,224.221,298.08Z" transform="translate(-135.827 -229.059)" fill="#6c63ff"/>
    <rect id="Retângulo_26" data-name="Retângulo 26" width="11.23" height="11.23" transform="translate(92.51 63.117)" fill="#6c63ff" opacity="0.2"/>
    <rect id="Retângulo_27" data-name="Retângulo 27" width="11.23" height="11.23" transform="translate(107.86 63.117)" fill="#6c63ff"/>
    <rect id="Retângulo_28" data-name="Retângulo 28" width="11.23" height="11.23" transform="translate(123.205 63.117)" fill="#6c63ff" opacity="0.2"/>
    <rect id="Retângulo_29" data-name="Retângulo 29" width="11.23" height="11.23" transform="translate(138.555 63.117)" fill="#6c63ff" opacity="0.7"/>
    <rect id="Retângulo_30" data-name="Retângulo 30" width="11.23" height="11.23" transform="translate(153.901 63.117)" fill="#6c63ff" opacity="0.2"/>
    <rect id="Retângulo_31" data-name="Retângulo 31" width="11.23" height="11.23" transform="translate(169.251 63.117)" fill="#6c63ff" opacity="0.4"/>
    <rect id="Retângulo_32" data-name="Retângulo 32" width="11.23" height="11.23" transform="translate(184.601 63.117)" fill="#6c63ff"/>
    <rect id="Retângulo_33" data-name="Retângulo 33" width="11.23" height="11.23" transform="translate(199.947 63.117)" fill="#6c63ff" opacity="0.4"/>
    <rect id="Retângulo_34" data-name="Retângulo 34" width="11.23" height="11.23" transform="translate(215.297 63.117)" fill="#6c63ff" opacity="0.2"/>
    <rect id="Retângulo_35" data-name="Retângulo 35" width="11.23" height="11.23" transform="translate(230.643 63.117)" fill="#6c63ff" opacity="0.4"/>
    <rect id="Retângulo_36" data-name="Retângulo 36" width="11.23" height="11.23" transform="translate(245.993 63.117)" fill="#6c63ff"/>
    <rect id="Retângulo_37" data-name="Retângulo 37" width="11.23" height="11.23" transform="translate(261.343 63.117)" fill="#6c63ff" opacity="0.4"/>
    <rect id="Retângulo_38" data-name="Retângulo 38" width="11.23" height="11.23" transform="translate(276.688 63.117)" fill="#6c63ff" opacity="0.4"/>
    <rect id="Retângulo_39" data-name="Retângulo 39" width="11.23" height="11.23" transform="translate(292.038 63.117)" fill="#6c63ff" opacity="0.2"/>
    <rect id="Retângulo_40" data-name="Retângulo 40" width="11.23" height="11.23" transform="translate(307.389 63.117)" fill="#6c63ff" opacity="0.4"/>
    <rect id="Retângulo_41" data-name="Retângulo 41" width="11.23" height="11.23" transform="translate(322.734 63.117)" fill="#6c63ff" opacity="0.4"/>
    <rect id="Retângulo_42" data-name="Retângulo 42" width="11.23" height="11.23" transform="translate(338.084 63.117)" fill="#6c63ff" opacity="0.2"/>
    <rect id="Retângulo_43" data-name="Retângulo 43" width="11.23" height="11.23" transform="translate(353.43 63.117)" fill="#6c63ff" opacity="0.2"/>
    <rect id="Retângulo_44" data-name="Retângulo 44" width="11.23" height="11.23" transform="translate(368.78 63.117)" fill="#6c63ff" opacity="0.4"/>
    <rect id="Retângulo_45" data-name="Retângulo 45" width="11.23" height="11.23" transform="translate(384.13 63.117)" fill="#6c63ff" opacity="0.2"/>
    <rect id="Retângulo_46" data-name="Retângulo 46" width="11.23" height="11.23" transform="translate(399.476 63.117)" fill="#6c63ff"/>
    <rect id="Retângulo_47" data-name="Retângulo 47" width="11.23" height="11.23" transform="translate(414.826 63.117)" fill="#6c63ff"/>
    <rect id="Retângulo_48" data-name="Retângulo 48" width="11.23" height="11.23" transform="translate(430.172 63.117)" fill="#6c63ff"/>
    <path id="Caminho_4" data-name="Caminho 4" d="M144.78,324.67v7.849H133.55v-3.834a76.824,76.824,0,0,1,11.23-4.015Z" transform="translate(-87.086 -243.944)" fill="#6c63ff" opacity="0.2"/>
    <path id="Caminho_5" data-name="Caminho 5" d="M151.65,177.57v10.385H140.42v-8.844Z" transform="translate(-78.606 -99.38)" fill="#6c63ff" opacity="0.2"/>
    <rect id="Retângulo_49" data-name="Retângulo 49" width="11.23" height="11.23" transform="translate(77.159 77.345)" fill="#6c63ff"/>
    <rect id="Retângulo_50" data-name="Retângulo 50" width="11.23" height="11.23" transform="translate(92.51 77.345)" fill="#6c63ff" opacity="0.7"/>
    <rect id="Retângulo_51" data-name="Retângulo 51" width="11.23" height="11.23" transform="translate(107.86 77.345)" fill="#6c63ff"/>
    <rect id="Retângulo_52" data-name="Retângulo 52" width="11.23" height="11.23" transform="translate(123.205 77.345)" fill="#6c63ff" opacity="0.7"/>
    <rect id="Retângulo_53" data-name="Retângulo 53" width="11.23" height="11.23" transform="translate(138.555 77.345)" fill="#6c63ff" opacity="0.7"/>
    <rect id="Retângulo_54" data-name="Retângulo 54" width="11.23" height="11.23" transform="translate(153.901 77.345)" fill="#6c63ff" opacity="0.2"/>
    <rect id="Retângulo_55" data-name="Retângulo 55" width="11.23" height="11.23" transform="translate(169.251 77.345)" fill="#6c63ff" opacity="0.4"/>
    <rect id="Retângulo_56" data-name="Retângulo 56" width="11.23" height="11.23" transform="translate(184.601 77.345)" fill="#6c63ff" opacity="0.4"/>
    <rect id="Retângulo_57" data-name="Retângulo 57" width="11.23" height="11.23" transform="translate(199.947 77.345)" fill="#6c63ff"/>
    <rect id="Retângulo_58" data-name="Retângulo 58" width="11.23" height="11.23" transform="translate(215.297 77.345)" fill="#6c63ff" opacity="0.2"/>
    <rect id="Retângulo_59" data-name="Retângulo 59" width="11.23" height="11.23" transform="translate(230.643 77.345)" fill="#6c63ff" opacity="0.4"/>
    <rect id="Retângulo_60" data-name="Retângulo 60" width="11.23" height="11.23" transform="translate(245.993 77.345)" fill="#6c63ff"/>
    <rect id="Retângulo_61" data-name="Retângulo 61" width="11.23" height="11.23" transform="translate(261.343 77.345)" fill="#6c63ff" opacity="0.2"/>
    <rect id="Retângulo_62" data-name="Retângulo 62" width="11.23" height="11.23" transform="translate(276.688 77.345)" fill="#6c63ff" opacity="0.4"/>
    <rect id="Retângulo_63" data-name="Retângulo 63" width="11.23" height="11.23" transform="translate(292.038 77.345)" fill="#6c63ff" opacity="0.2"/>
    <rect id="Retângulo_64" data-name="Retângulo 64" width="11.23" height="11.23" transform="translate(307.389 77.345)" fill="#6c63ff"/>
    <rect id="Retângulo_65" data-name="Retângulo 65" width="11.23" height="11.23" transform="translate(322.734 77.345)" fill="#6c63ff" opacity="0.2"/>
    <rect id="Retângulo_66" data-name="Retângulo 66" width="11.23" height="11.23" transform="translate(338.084 77.345)" fill="#6c63ff" opacity="0.7"/>
    <rect id="Retângulo_67" data-name="Retângulo 67" width="11.23" height="11.23" transform="translate(353.43 77.345)" fill="#6c63ff" opacity="0.7"/>
    <rect id="Retângulo_68" data-name="Retângulo 68" width="11.23" height="11.23" transform="translate(368.78 77.345)" fill="#6c63ff" opacity="0.4"/>
    <rect id="Retângulo_69" data-name="Retângulo 69" width="11.23" height="11.23" transform="translate(384.13 77.345)" fill="#6c63ff" opacity="0.2"/>
    <rect id="Retângulo_70" data-name="Retângulo 70" width="11.23" height="11.23" transform="translate(399.476 77.345)" fill="#6c63ff"/>
    <rect id="Retângulo_71" data-name="Retângulo 71" width="11.23" height="11.23" transform="translate(414.826 77.345)" fill="#6c63ff"/>
    <rect id="Retângulo_72" data-name="Retângulo 72" width="11.23" height="11.23" transform="translate(430.172 77.345)" fill="#6c63ff"/>
    <rect id="Retângulo_73" data-name="Retângulo 73" width="11.23" height="11.23" transform="translate(46.464 91.568)" fill="#6c63ff" opacity="0.2"/>
    <rect id="Retângulo_74" data-name="Retângulo 74" width="11.23" height="11.23" transform="translate(61.814 91.568)" fill="#6c63ff" opacity="0.2"/>
    <rect id="Retângulo_75" data-name="Retângulo 75" width="11.23" height="11.23" transform="translate(77.159 91.568)" fill="#6c63ff" opacity="0.2"/>
    <rect id="Retângulo_76" data-name="Retângulo 76" width="11.23" height="11.23" transform="translate(92.51 91.568)" fill="#6c63ff" opacity="0.2"/>
    <rect id="Retângulo_77" data-name="Retângulo 77" width="11.23" height="11.23" transform="translate(107.86 91.568)" fill="#6c63ff"/>
    <rect id="Retângulo_78" data-name="Retângulo 78" width="11.23" height="11.23" transform="translate(123.205 91.568)" fill="#6c63ff" opacity="0.7"/>
    <rect id="Retângulo_79" data-name="Retângulo 79" width="11.23" height="11.23" transform="translate(138.555 91.568)" fill="#6c63ff" opacity="0.7"/>
    <rect id="Retângulo_80" data-name="Retângulo 80" width="11.23" height="11.23" transform="translate(153.901 91.568)" fill="#6c63ff" opacity="0.2"/>
    <rect id="Retângulo_81" data-name="Retângulo 81" width="11.23" height="11.23" transform="translate(169.251 91.568)" fill="#6c63ff" opacity="0.2"/>
    <rect id="Retângulo_82" data-name="Retângulo 82" width="11.23" height="11.23" transform="translate(184.601 91.568)" fill="#6c63ff" opacity="0.4"/>
    <rect id="Retângulo_83" data-name="Retângulo 83" width="11.23" height="11.23" transform="translate(199.947 91.568)" fill="#6c63ff" opacity="0.4"/>
    <rect id="Retângulo_84" data-name="Retângulo 84" width="11.23" height="11.23" transform="translate(215.297 91.568)" fill="#6c63ff"/>
    <rect id="Retângulo_85" data-name="Retângulo 85" width="11.23" height="11.23" transform="translate(230.643 91.568)" fill="#6c63ff" opacity="0.2"/>
    <rect id="Retângulo_86" data-name="Retângulo 86" width="11.23" height="11.23" transform="translate(245.993 91.568)" fill="#6c63ff" opacity="0.4"/>
    <rect id="Retângulo_87" data-name="Retângulo 87" width="11.23" height="11.23" transform="translate(261.343 91.568)" fill="#6c63ff" opacity="0.4"/>
    <rect id="Retângulo_88" data-name="Retângulo 88" width="11.23" height="11.23" transform="translate(276.688 91.568)" fill="#6c63ff" opacity="0.4"/>
    <rect id="Retângulo_89" data-name="Retângulo 89" width="11.23" height="11.23" transform="translate(292.038 91.568)" fill="#6c63ff" opacity="0.4"/>
    <rect id="Retângulo_90" data-name="Retângulo 90" width="11.23" height="11.23" transform="translate(307.389 91.568)" fill="#6c63ff" opacity="0.2"/>
    <rect id="Retângulo_91" data-name="Retângulo 91" width="11.23" height="11.23" transform="translate(322.734 91.568)" fill="#6c63ff" opacity="0.2"/>
    <rect id="Retângulo_92" data-name="Retângulo 92" width="11.23" height="11.23" transform="translate(338.084 91.568)" fill="#6c63ff" opacity="0.2"/>
    <rect id="Retângulo_93" data-name="Retângulo 93" width="11.23" height="11.23" transform="translate(353.43 91.568)" fill="#6c63ff" opacity="0.2"/>
    <rect id="Retângulo_94" data-name="Retângulo 94" width="11.23" height="11.23" transform="translate(368.78 91.568)" fill="#6c63ff" opacity="0.7"/>
    <rect id="Retângulo_95" data-name="Retângulo 95" width="11.23" height="11.23" transform="translate(384.13 91.568)" fill="#6c63ff" opacity="0.7"/>
    <rect id="Retângulo_96" data-name="Retângulo 96" width="11.23" height="11.23" transform="translate(399.476 91.568)" fill="#6c63ff" opacity="0.4"/>
    <rect id="Retângulo_97" data-name="Retângulo 97" width="11.23" height="11.23" transform="translate(414.826 91.568)" fill="#6c63ff" opacity="0.2"/>
    <rect id="Retângulo_98" data-name="Retângulo 98" width="11.23" height="11.23" transform="translate(430.172 91.568)" fill="#6c63ff"/>
    <rect id="Retângulo_99" data-name="Retângulo 99" width="11.23" height="11.23" transform="translate(46.464 105.796)" fill="#6c63ff" opacity="0.2"/>
    <rect id="Retângulo_100" data-name="Retângulo 100" width="11.23" height="11.23" transform="translate(61.814 105.796)" fill="#6c63ff" opacity="0.2"/>
    <rect id="Retângulo_101" data-name="Retângulo 101" width="11.23" height="11.23" transform="translate(77.159 105.796)" fill="#6c63ff" opacity="0.4"/>
    <rect id="Retângulo_102" data-name="Retângulo 102" width="11.23" height="11.23" transform="translate(92.51 105.796)" fill="#6c63ff" opacity="0.2"/>
    <rect id="Retângulo_103" data-name="Retângulo 103" width="11.23" height="11.23" transform="translate(107.86 105.796)" fill="#6c63ff" opacity="0.2"/>
    <rect id="Retângulo_104" data-name="Retângulo 104" width="11.23" height="11.23" transform="translate(123.205 105.796)" fill="#6c63ff" opacity="0.7"/>
    <rect id="Retângulo_105" data-name="Retângulo 105" width="11.23" height="11.23" transform="translate(138.555 105.796)" fill="#6c63ff" opacity="0.7"/>
    <rect id="Retângulo_106" data-name="Retângulo 106" width="11.23" height="11.23" transform="translate(153.901 105.796)" fill="#6c63ff" opacity="0.2"/>
    <rect id="Retângulo_107" data-name="Retângulo 107" width="11.23" height="11.23" transform="translate(169.251 105.796)" fill="#6c63ff" opacity="0.2"/>
    <rect id="Retângulo_108" data-name="Retângulo 108" width="11.23" height="11.23" transform="translate(184.601 105.796)" fill="#6c63ff" opacity="0.4"/>
    <rect id="Retângulo_109" data-name="Retângulo 109" width="11.23" height="11.23" transform="translate(199.947 105.796)" fill="#6c63ff"/>
    <rect id="Retângulo_110" data-name="Retângulo 110" width="11.23" height="11.23" transform="translate(215.297 105.796)" fill="#6c63ff" opacity="0.2"/>
    <rect id="Retângulo_111" data-name="Retângulo 111" width="11.23" height="11.23" transform="translate(230.643 105.796)" fill="#6c63ff"/>
    <rect id="Retângulo_112" data-name="Retângulo 112" width="11.23" height="11.23" transform="translate(245.993 105.796)" fill="#6c63ff"/>
    <rect id="Retângulo_113" data-name="Retângulo 113" width="11.23" height="11.23" transform="translate(261.343 105.796)" fill="#6c63ff"/>
    <rect id="Retângulo_114" data-name="Retângulo 114" width="11.23" height="11.23" transform="translate(276.688 105.796)" fill="#6c63ff" opacity="0.2"/>
    <rect id="Retângulo_115" data-name="Retângulo 115" width="11.23" height="11.23" transform="translate(292.038 105.796)" fill="#6c63ff"/>
    <rect id="Retângulo_116" data-name="Retângulo 116" width="11.23" height="11.23" transform="translate(307.389 105.796)" fill="#6c63ff" opacity="0.2"/>
    <rect id="Retângulo_117" data-name="Retângulo 117" width="11.23" height="11.23" transform="translate(322.734 105.796)" fill="#6c63ff" opacity="0.2"/>
    <rect id="Retângulo_118" data-name="Retângulo 118" width="11.23" height="11.23" transform="translate(338.084 105.796)" fill="#6c63ff" opacity="0.2"/>
    <rect id="Retângulo_119" data-name="Retângulo 119" width="11.23" height="11.23" transform="translate(353.43 105.796)" fill="#6c63ff" opacity="0.2"/>
    <rect id="Retângulo_120" data-name="Retângulo 120" width="11.23" height="11.23" transform="translate(368.78 105.796)" fill="#6c63ff" opacity="0.2"/>
    <rect id="Retângulo_121" data-name="Retângulo 121" width="11.23" height="11.23" transform="translate(384.13 105.796)" fill="#6c63ff" opacity="0.7"/>
    <rect id="Retângulo_122" data-name="Retângulo 122" width="11.23" height="11.23" transform="translate(399.476 105.796)" fill="#6c63ff" opacity="0.2"/>
    <rect id="Retângulo_123" data-name="Retângulo 123" width="11.23" height="11.23" transform="translate(414.826 105.796)" fill="#6c63ff" opacity="0.2"/>
    <rect id="Retângulo_124" data-name="Retângulo 124" width="11.23" height="11.23" transform="translate(430.172 105.796)" fill="#6c63ff"/>
    <rect id="Retângulo_125" data-name="Retângulo 125" width="11.23" height="11.23" transform="translate(46.464 120.019)" fill="#6c63ff" opacity="0.2"/>
    <rect id="Retângulo_126" data-name="Retângulo 126" width="11.23" height="11.23" transform="translate(61.814 120.019)" fill="#6c63ff" opacity="0.2"/>
    <rect id="Retângulo_127" data-name="Retângulo 127" width="11.23" height="11.23" transform="translate(77.159 120.019)" fill="#6c63ff" opacity="0.2"/>
    <rect id="Retângulo_128" data-name="Retângulo 128" width="11.23" height="11.23" transform="translate(92.51 120.019)" fill="#6c63ff" opacity="0.4"/>
    <rect id="Retângulo_129" data-name="Retângulo 129" width="11.23" height="11.23" transform="translate(107.86 120.019)" fill="#6c63ff" opacity="0.2"/>
    <rect id="Retângulo_130" data-name="Retângulo 130" width="11.23" height="11.23" transform="translate(123.205 120.019)" fill="#6c63ff" opacity="0.2"/>
    <rect id="Retângulo_131" data-name="Retângulo 131" width="11.23" height="11.23" transform="translate(138.555 120.019)" fill="#6c63ff" opacity="0.7"/>
    <rect id="Retângulo_132" data-name="Retângulo 132" width="11.23" height="11.23" transform="translate(153.901 120.019)" fill="#6c63ff" opacity="0.2"/>
    <rect id="Retângulo_133" data-name="Retângulo 133" width="11.23" height="11.23" transform="translate(169.251 120.019)" fill="#6c63ff" opacity="0.2"/>
    <rect id="Retângulo_134" data-name="Retângulo 134" width="11.23" height="11.23" transform="translate(184.601 120.019)" fill="#6c63ff" opacity="0.2"/>
    <rect id="Retângulo_135" data-name="Retângulo 135" width="11.23" height="11.23" transform="translate(199.947 120.019)" fill="#6c63ff"/>
    <rect id="Retângulo_136" data-name="Retângulo 136" width="11.23" height="11.23" transform="translate(215.297 120.019)" fill="#6c63ff" opacity="0.2"/>
    <rect id="Retângulo_137" data-name="Retângulo 137" width="11.23" height="11.23" transform="translate(230.643 120.019)" fill="#6c63ff"/>
    <rect id="Retângulo_138" data-name="Retângulo 138" width="11.23" height="11.23" transform="translate(245.993 120.019)" fill="#6c63ff"/>
    <rect id="Retângulo_139" data-name="Retângulo 139" width="11.23" height="11.23" transform="translate(261.343 120.019)" fill="#6c63ff" opacity="0.2"/>
    <rect id="Retângulo_140" data-name="Retângulo 140" width="11.23" height="11.23" transform="translate(276.688 120.019)" fill="#6c63ff" opacity="0.2"/>
    <rect id="Retângulo_141" data-name="Retângulo 141" width="11.23" height="11.23" transform="translate(292.038 120.019)" fill="#6c63ff" opacity="0.2"/>
    <rect id="Retângulo_142" data-name="Retângulo 142" width="11.23" height="11.23" transform="translate(307.389 120.019)" fill="#6c63ff" opacity="0.2"/>
    <rect id="Retângulo_143" data-name="Retângulo 143" width="11.23" height="11.23" transform="translate(322.734 120.019)" fill="#6c63ff" opacity="0.2"/>
    <rect id="Retângulo_144" data-name="Retângulo 144" width="11.23" height="11.23" transform="translate(338.084 120.019)" fill="#6c63ff" opacity="0.2"/>
    <rect id="Retângulo_145" data-name="Retângulo 145" width="11.23" height="11.23" transform="translate(353.43 120.019)" fill="#6c63ff" opacity="0.2"/>
    <rect id="Retângulo_146" data-name="Retângulo 146" width="11.23" height="11.23" transform="translate(368.78 120.019)" fill="#6c63ff" opacity="0.2"/>
    <rect id="Retângulo_147" data-name="Retângulo 147" width="11.23" height="11.23" transform="translate(384.13 120.019)" fill="#6c63ff" opacity="0.2"/>
    <rect id="Retângulo_148" data-name="Retângulo 148" width="11.23" height="11.23" transform="translate(399.476 120.019)" fill="#6c63ff" opacity="0.2"/>
    <rect id="Retângulo_149" data-name="Retângulo 149" width="11.23" height="11.23" transform="translate(414.826 120.019)" fill="#6c63ff" opacity="0.4"/>
    <rect id="Retângulo_150" data-name="Retângulo 150" width="11.23" height="11.23" transform="translate(430.172 120.019)" fill="#6c63ff"/>
    <rect id="Retângulo_151" data-name="Retângulo 151" width="11.23" height="11.23" transform="translate(46.464 134.246)" fill="#6c63ff" opacity="0.7"/>
    <rect id="Retângulo_152" data-name="Retângulo 152" width="11.23" height="11.23" transform="translate(61.814 134.246)" fill="#6c63ff" opacity="0.7"/>
    <rect id="Retângulo_153" data-name="Retângulo 153" width="11.23" height="11.23" transform="translate(77.159 134.246)" fill="#6c63ff" opacity="0.7"/>
    <rect id="Retângulo_154" data-name="Retângulo 154" width="11.23" height="11.23" transform="translate(92.51 134.246)" fill="#6c63ff" opacity="0.7"/>
    <rect id="Retângulo_155" data-name="Retângulo 155" width="11.23" height="11.23" transform="translate(107.86 134.246)" fill="#6c63ff" opacity="0.7"/>
    <rect id="Retângulo_156" data-name="Retângulo 156" width="11.23" height="11.23" transform="translate(123.205 134.246)" fill="#6c63ff" opacity="0.2"/>
    <rect id="Retângulo_157" data-name="Retângulo 157" width="11.23" height="11.23" transform="translate(138.555 134.246)" fill="#6c63ff" opacity="0.2"/>
    <rect id="Retângulo_158" data-name="Retângulo 158" width="11.23" height="11.23" transform="translate(153.901 134.246)" fill="#6c63ff" opacity="0.2"/>
    <rect id="Retângulo_159" data-name="Retângulo 159" width="11.23" height="11.23" transform="translate(169.251 134.246)" fill="#6c63ff" opacity="0.2"/>
    <rect id="Retângulo_160" data-name="Retângulo 160" width="11.23" height="11.23" transform="translate(184.601 134.246)" fill="#6c63ff" opacity="0.2"/>
    <rect id="Retângulo_161" data-name="Retângulo 161" width="11.23" height="11.23" transform="translate(199.947 134.246)" fill="#6c63ff" opacity="0.2"/>
    <rect id="Retângulo_162" data-name="Retângulo 162" width="11.23" height="11.23" transform="translate(215.297 134.246)" fill="#6c63ff"/>
    <rect id="Retângulo_163" data-name="Retângulo 163" width="11.23" height="11.23" transform="translate(230.643 134.246)" fill="#6c63ff" opacity="0.2"/>
    <rect id="Retângulo_164" data-name="Retângulo 164" width="11.23" height="11.23" transform="translate(245.993 134.246)" fill="#6c63ff" opacity="0.2"/>
    <rect id="Retângulo_165" data-name="Retângulo 165" width="11.23" height="11.23" transform="translate(261.343 134.246)" fill="#6c63ff" opacity="0.2"/>
    <rect id="Retângulo_166" data-name="Retângulo 166" width="11.23" height="11.23" transform="translate(276.688 134.246)" fill="#6c63ff"/>
    <rect id="Retângulo_167" data-name="Retângulo 167" width="11.23" height="11.23" transform="translate(292.038 134.246)" fill="#6c63ff" opacity="0.2"/>
    <rect id="Retângulo_168" data-name="Retângulo 168" width="11.23" height="11.23" transform="translate(307.389 134.246)" fill="#6c63ff" opacity="0.2"/>
    <rect id="Retângulo_169" data-name="Retângulo 169" width="11.23" height="11.23" transform="translate(322.734 134.246)" fill="#6c63ff" opacity="0.2"/>
    <rect id="Retângulo_170" data-name="Retângulo 170" width="11.23" height="11.23" transform="translate(338.084 134.246)" fill="#6c63ff" opacity="0.2"/>
    <rect id="Retângulo_171" data-name="Retângulo 171" width="11.23" height="11.23" transform="translate(353.43 134.246)" fill="#6c63ff" opacity="0.2"/>
    <rect id="Retângulo_172" data-name="Retângulo 172" width="11.23" height="11.23" transform="translate(368.78 134.246)" fill="#6c63ff" opacity="0.2"/>
    <rect id="Retângulo_173" data-name="Retângulo 173" width="11.23" height="11.23" transform="translate(384.13 134.246)" fill="#6c63ff" opacity="0.2"/>
    <rect id="Retângulo_174" data-name="Retângulo 174" width="11.23" height="11.23" transform="translate(399.476 134.246)" fill="#6c63ff" opacity="0.2"/>
    <rect id="Retângulo_175" data-name="Retângulo 175" width="11.23" height="11.23" transform="translate(414.826 134.246)" fill="#6c63ff" opacity="0.2"/>
    <rect id="Retângulo_176" data-name="Retângulo 176" width="11.23" height="11.23" transform="translate(430.172 134.246)" fill="#6c63ff"/>
    <circle id="Elipse_1" data-name="Elipse 1" cx="15.35" cy="15.35" r="15.35" transform="translate(307.992 144.86)" fill="#767d9f"/>
    <path id="Caminho_6" data-name="Caminho 6" d="M760.21,445.924q2.3,10.028,3.9,20.206c.321,2.016.607,4.142-.123,6.048-.612,1.589-1.858,2.831-2.835,4.222s-1.717,3.174-1.122,4.767,2.329,2.465,3.984,2.914c4.737,1.277,9.786.348,14.5-1.034a23.461,23.461,0,0,0,6.079-2.518,22.75,22.75,0,0,0,5.142-4.842c6.872-8.333,11.371-18.335,15.605-28.275a17.221,17.221,0,0,1-14.575-5.872c-1.734-2.038-3.007-4.877-2.029-7.369-2.866,1.572-6.269,1.677-9.354,2.751a33.229,33.229,0,0,0-5.5,2.707q-3.161,1.827-6.286,3.724C765.211,444.788,762.979,446.065,760.21,445.924Z" transform="translate(-437.665 -305.241)" fill="#ae6e79"/>
    <path id="Caminho_7" data-name="Caminho 7" d="M749.509,469.034c-2.69,5.234-6.189,10.266-11.186,13.382s-11.723,3.962-16.728.88c-2.465-1.506-4.332-3.795-6.484-5.723s-4.842-3.579-7.734-3.328c-3.187.277-5.683,2.764-7.818,5.146a61.15,61.15,0,0,0-8.663,11.674c-4.4,8.232-5.445,17.855-5.252,27.187s1.545,18.616,1.576,27.949c.044,11.481-1.9,22.869-3.869,34.178,18.093-2.227,36.207,2.641,54.339,4.486,11.6,1.193,23.3,1.167,34.961,1.136,2.051,0,4.235-.053,5.943-1.189a8.013,8.013,0,0,0,2.461-2.923,27.971,27.971,0,0,0,2.707-9.711c1.14-8.461,1.175-17.027,1.206-25.567.079-20.69.154-41.454-2.474-61.981a58.417,58.417,0,0,0-3.412-14.848c-1.937-4.723-5.1-9.068-9.517-11.6-2.839-1.629-9.42-4.464-12.766-2.822C753.044,457.192,751.309,465.53,749.509,469.034Z" transform="translate(-394.86 -316.827)" fill="#767d9f"/>
    <path id="Caminho_8" data-name="Caminho 8" d="M831.8,522.855c-.682-12.766-3.46-26.391,2.452-37.721,1.453-2.782-3.759-6.255-2.148-8.949a40.536,40.536,0,0,0,4.428-10.534,7.945,7.945,0,0,0,.286-3.9c-.585-2.329-2.888-3.715-4.842-5.133-2.157-1.567-3.266-6.343-3.962-8.927s5.533.528,8.038-.392c3.478-1.272,7.9-.471,11.366.819a18.972,18.972,0,0,0,6.106.828,80.434,80.434,0,0,0,12.013-.286,29.884,29.884,0,0,1,5.375-.462c4.583.26,8.567,3.394,11.278,7.1s4.437,8.025,6.66,12.04c1.853,3.346,4.063,6.506,5.643,9.988a61.492,61.492,0,0,1,3.161,9.685l2.258,8.448a11.262,11.262,0,0,1,.555,3.746,10.631,10.631,0,0,1-1.321,3.812,72.246,72.246,0,0,1-8.219,12.542c-4.75,5.824-10.517,11.076-13.338,18.049a45.586,45.586,0,0,0-2.272,8.483,311.632,311.632,0,0,0-4.8,34.843,76.685,76.685,0,0,0-16.076-5.375,78.18,78.18,0,0,0-8.364-1.321c-2.461-.255-5.635.229-7.977-.44-3.918-1.114-4.349-7.739-4.944-11.208a102.353,102.353,0,0,1-1.175-16.728C831.938,535.515,832.136,529.181,831.8,522.855Z" transform="translate(-475.81 -312.224)" fill="#4c4981"/>
    <path id="Caminho_9" data-name="Caminho 9" d="M592.9,557.983c1.853,10.565,3.9,21.161,7.924,31.088-.1.1-.2.185-.3.273-.357.3-.726.59-1.114.88a14.822,14.822,0,0,0-2.641,2,3.522,3.522,0,0,0-.66,1.078,2.412,2.412,0,0,0,0,1.968c-2.1.929-4.539.643-6.894.555-2.029-.075-4,0-5.626,1.114-2.263,1.558-2.945,4.552-3.31,7.272q-.2,1.488-.348,2.98-.141,1.387-.229,2.782a83.052,83.052,0,0,0-.084,9.244q.035.845.092,1.69c-7.193-.172-13.748-3.922-19.95-7.567a11.006,11.006,0,0,1-3.8-3.081,6.956,6.956,0,0,1-1.017-4.53,5.014,5.014,0,0,1,.07-.669,18.3,18.3,0,0,1,1.008-3.821,47.189,47.189,0,0,1,8.448-14.373c1.576-1.84,3.35-3.641,4.085-5.952.321-1.008.44-2.078.766-3.082,1.461-4.349,6.735-6.4,8.54-10.627a32.257,32.257,0,0,1,1.189-3.081,7.762,7.762,0,0,1,1.871-2.091c.321-.268.656-.528.986-.788q4.64-3.636,8.941-7.682.8-.753,1.585-1.523a26.183,26.183,0,0,0,.471,5.943Z" transform="translate(-322.947 -371.224)" fill="#4c4981"/>
    <path id="Caminho_10" data-name="Caminho 10" d="M685.019,482.362c-.634.669-1.321,1.3-1.994,1.924l-.18.163-.713.66a17.167,17.167,0,0,0-3.324,3.869l-.075.123c-2.245,4.019-1.413,8.967-.788,13.532a115.138,115.138,0,0,1,1.043,17.168c-.114,7.924-1.048,15.795-1.065,23.71q0,2.694.119,5.384c.128,2.919.348,5.833.612,8.747.286,3.2.629,6.387.951,9.579.255,2.47.5,4.935.7,7.4.1,1.277.2,2.549.277,3.825.092,1.5.167,3,.211,4.495h0c.031.951.048,1.9.048,2.848V587.4q0,1.545-.084,3.081-.088,1.977-.269,3.962a6.423,6.423,0,0,1-1.391,4.024c-.062.062-.128.119-.194.176l-1.426-.176a146.463,146.463,0,0,0-29.626-.528c.216-1.488.414-2.971.607-4.464.088-.7.176-1.413.26-2.122q.145-1.215.277-2.43.152-1.321.282-2.641.343-3.4.6-6.81.383-4.97.581-9.958.1-2.381.15-4.767.075-2.958.07-5.921,0-2.879-.048-5.767c0-.634-.026-1.268-.079-1.9a12.033,12.033,0,0,0-.233-1.686A21.958,21.958,0,0,0,649,545.748c-.1-.229-.189-.44-.282-.682-.053-.119-.1-.242-.15-.361,2.536-2.258,4.34-5.283,6.075-8.258,2.813-4.794,5.692-9.8,6.163-15.337s-2.28-11.758-7.572-13.448a36.779,36.779,0,0,0-4.446-.823,19.533,19.533,0,0,1-5.938-1.809q-1.321,1.356-2.641,2.663a9.752,9.752,0,0,1,.955-3.834l.625.031a1.193,1.193,0,0,1-.07-.44,2.313,2.313,0,0,1,1.021-1.594c2.073-1.761,5.335-2.153,6.643-4.534a33.072,33.072,0,0,0,1.078-3.209c1.263-2.963,4.891-4.054,7.074-6.423s2.729-5.723,4.495-8.364a12.6,12.6,0,0,1,5.283-4.4c.176-.084.357-.167.537-.242,3.654-1.563,7.994-1.919,11.78-1.91,1.47,0,5.283.044,7.149.788a2.341,2.341,0,0,1,.814.5C689.584,476.221,686.489,480.795,685.019,482.362Z" transform="translate(-370.71 -326.849)" fill="#4c4981"/>
    <path id="Caminho_11" data-name="Caminho 11" d="M632.24,541.243a26.8,26.8,0,0,1,20.575,2.144,19.462,19.462,0,0,1,7.756,7.387c2.619,4.754,2.5,10.486,2.32,15.914-.092,2.716-.211,5.529-1.409,7.968-1.387,2.822-4,4.759-6.669,6.343a18.594,18.594,0,0,1-5.423,2.346c-2.958.643-6.031.1-9.011-.44-3.24-.6-6.718-1.321-8.967-3.733a15.316,15.316,0,0,1-2.756-5q-1.536-3.852-3.081-7.695c-1.783-4.451-2.386-8.153-.031-12.489,1.07-1.976,2.377-3.825,3.434-5.815C629.507,547.164,631.4,541.5,632.24,541.243Z" transform="translate(-361.636 -364.543)" fill="#4c4981"/>
    <path id="Caminho_12" data-name="Caminho 12" d="M544.65,682.566v13.162a73.648,73.648,0,0,1-28.495,5.635H397.435c-.062.062-.128.119-.194.176l-1.426-.176H184.634a91.988,91.988,0,0,1-47.6-12.925v-20.1L238.595,656.62h.079l59.146,5.01,15.306,1.321,7.95.674,16.455,1.4,8.465.717,12.326,1.048,1.734.145,8.883.753,12.053.99,16.948,1.435,28.253,2.4,19.875,1.686,32.637,2.769,6.207.524.669.057.581.048,8.2.7,9,.766,1.043.088Z" transform="translate(-89.034 -429.767)" fill="#2e3237"/>
    <path id="Caminho_13" data-name="Caminho 13" d="M595.867,545.494,468.585,523.77l-4.935,24.955L522,555.712l17.965,2.249,49.418-9.733Z" transform="translate(-259.548 -293.18)" fill="#9c9ca1"/>
    <path id="Caminho_14" data-name="Caminho 14" d="M642.33,724.647,706.1,712.66a2.2,2.2,0,0,1,2.615,2.17h0a2.2,2.2,0,0,1-1.8,2.17l-62.276,11.661Z" transform="translate(-371.897 -461.116)" fill="#9c9ca1"/>
    <path id="Caminho_15" data-name="Caminho 15" d="M642.059,643.47a16.447,16.447,0,0,0,5.784-1.378c2.2-1.1,3.913-2.985,5.952-4.376a17.726,17.726,0,0,1,15.614-1.726,25.151,25.151,0,0,1,12.427,10.085c1.994,3.015,3.491,6.863,2.082,10.191A13.431,13.431,0,0,1,682.1,659.1l-3.671,4.8a12.764,12.764,0,0,1-2.492,2.681,10.588,10.588,0,0,1-4.763,1.655c-4.468.651-9.015.282-13.519.581-7.734.515-15.288,3.007-23.041,2.923a69.455,69.455,0,0,1-13.206-1.844l-19.268-3.962c-3.354-.687-7.145-1.69-8.725-4.732a10.97,10.97,0,0,1-.924-4.495c-.229-4.244,0-8.963,2.941-12.022,2.765-2.87,7.136-3.777,10.437-5.9,4.041-2.6,5.375-1.761,9.636.194a52.825,52.825,0,0,0,26.549,4.49Z" transform="translate(-343.963 -417.633)" fill="#ae6e79"/>
    <path id="Caminho_16" data-name="Caminho 16" d="M642.059,643.47a16.447,16.447,0,0,0,5.784-1.378c2.2-1.1,3.913-2.985,5.952-4.376a17.726,17.726,0,0,1,15.614-1.726,25.151,25.151,0,0,1,12.427,10.085c1.994,3.015,3.491,6.863,2.082,10.191A13.431,13.431,0,0,1,682.1,659.1l-3.671,4.8a12.764,12.764,0,0,1-2.492,2.681,10.588,10.588,0,0,1-4.763,1.655c-4.468.651-9.015.282-13.519.581-7.734.515-15.288,3.007-23.041,2.923a69.455,69.455,0,0,1-13.206-1.844l-19.268-3.962c-3.354-.687-7.145-1.69-8.725-4.732a10.97,10.97,0,0,1-.924-4.495c-.229-4.244,0-8.963,2.941-12.022,2.765-2.87,7.136-3.777,10.437-5.9,4.041-2.6,5.375-1.761,9.636.194a52.825,52.825,0,0,0,26.549,4.49Z" transform="translate(-343.963 -417.633)" opacity="0.05"/>
    <path id="Caminho_17" data-name="Caminho 17" d="M735.99,637.735a114.182,114.182,0,0,1-16.5,5.437c-9.491,2.091-19.422,1.761-28.838,4.151-4.974,1.268-9.918,3.31-15.029,2.9a45.042,45.042,0,0,1-6.713-1.409c-12.489-3.081-26.685-2.082-36.828,5.842a45.834,45.834,0,0,0-8.883,9.685,6.471,6.471,0,0,0,2.6,9.632A38.13,38.13,0,0,0,638.29,677.3c5.78.511,11.586-.308,17.335-1.127,8.531-1.211,17.067-2.426,25.576-3.786,3.055-.489,6.11-.995,9.183-1.382,22.112-2.8,44.624.6,66.793-1.73a20.4,20.4,0,0,0,6.559-1.5c5.159-2.421,7.712-8.8,6.647-14.412s-5.177-10.27-10.125-13.131c-4.147-2.408-8.619-3.381-13.237-4.4C742.734,634.829,740.119,636.15,735.99,637.735Z" transform="translate(-360.519 -417.934)" fill="#ae6e79"/>
    <path id="Caminho_18" data-name="Caminho 18" d="M915.338,540.567c2.439,3.2,2.958,7.484,2.694,11.485s-1.215,7.959-1.356,11.978c-.194,5.511,1.136,11.005.911,16.5a47.465,47.465,0,0,1-2.148,11.3c-1.272,4.354-3.112,9.033-7.131,11.124-5.335,2.778-16.525,1.215-22.138,3.39.511-3.183,5.406-7.792,5.916-10.974a20.493,20.493,0,0,0,.33-6.669,14.75,14.75,0,0,0-4.094-7.387,21.6,21.6,0,0,0-11.652-6.6c-4.468-.81-15.407-.145-18.982,2.676-.44-2.914,7.748-5.723,10.627-6.352,1.435-.321,3.082-.141,4.23-1.052,2.2-1.726.6-5.164.709-7.924.084-2.2,1.369-4.217,1.629-6.418.44-3.522-1.858-7.109-.955-10.565a27.424,27.424,0,0,1,1.594-3.614c1.567-3.72.88-7.963.044-11.916-.519-2.483-1.026-5.282.357-7.4,1.281-1.977,4.917,5.062,7.246,4.737,7.69-1.078,14.65-6.779,20.861-2.113,3.165,2.377,3.579,4.842,4.842,8.236C910.1,536.235,913.282,537.89,915.338,540.567Z" transform="translate(-492.443 -354.292)" opacity="0.1"/>
    <path id="Caminho_19" data-name="Caminho 19" d="M918.338,536.782c2.439,3.2,2.958,7.483,2.694,11.485s-1.215,7.959-1.356,11.978c-.194,5.511,1.136,11.005.911,16.5a47.464,47.464,0,0,1-2.148,11.3c-1.272,4.354-3.112,9.033-7.131,11.124-5.335,2.778-16.525,1.215-22.138,3.39.511-3.183,5.406-7.792,5.916-10.974a20.5,20.5,0,0,0,.33-6.669,14.75,14.75,0,0,0-4.094-7.387,21.6,21.6,0,0,0-11.652-6.6c-4.468-.81-15.407-.145-18.982,2.677-.44-2.914,7.748-5.723,10.627-6.352,1.435-.321,3.081-.141,4.23-1.052,2.2-1.726.6-5.164.709-7.924.084-2.2,1.369-4.217,1.629-6.418.44-3.522-1.858-7.109-.955-10.565a27.4,27.4,0,0,1,1.594-3.614c1.567-3.72.88-7.963.044-11.917-.52-2.483-1.026-5.282.357-7.4,1.281-1.977,3.786-2.725,6.115-3.055a30.119,30.119,0,0,1,22.01,5.679c3.165,2.377,3.579,4.842,4.842,8.236C913.1,532.45,916.282,534.106,918.338,536.782Z" transform="translate(-494.123 -350.507)" fill="#4c4981"/>
    <path id="Caminho_20" data-name="Caminho 20" d="M329.754,498.169l23.934,88.456a5.525,5.525,0,0,0,4.8,4.054l107.728,10.349a5.52,5.52,0,0,0,5.89-6.814l-26.21-106.7a5.52,5.52,0,0,0-5.776-4.186l-105.47,7.889a5.52,5.52,0,0,0-4.9,6.951Z" transform="translate(-196.812 -332.752)" fill="#9c9ca1"/>
    <ellipse id="Elipse_2" data-name="Elipse 2" cx="11.842" cy="11.996" rx="11.842" ry="11.996" transform="translate(334.651 158.687)" fill="#fff"/>
    <path id="Caminho_21" data-name="Caminho 21" d="M829.811,479.069s2.5,7.422-4.869,10.543L824,491.259l4.613,4.552s5.688-10.376,5.071-14.06C833.685,481.75,832.8,478.008,829.811,479.069Z" transform="translate(-473.594 -330.269)" fill="#fff"/>
    <circle id="Elipse_3" data-name="Elipse 3" cx="11.419" cy="11.419" r="11.419" transform="translate(336.434 159.84)" fill="#6c63ff"/>
    <path id="Caminho_22" data-name="Caminho 22" d="M827.69,460.037l-1.814-2.993-2.641-.374c.563-9.856-1.994-12.792-1.994-12.792l-.594-.057-2.588-.251-4.869-5.054V437.08c6.841.814,10.622,4.063,12.665,7.871C829.464,451.633,827.69,460.037,827.69,460.037Z" transform="translate(-467.543 -306.87)" fill="#6c63ff"/>
    <path id="Caminho_23" data-name="Caminho 23" d="M820.7,443.831v1.814l-2.588-.251-4.869-5.054S820.772,442.026,820.7,443.831Z" transform="translate(-467.571 -308.695)" stroke="#4c4981" stroke-miterlimit="10" stroke-width="1" opacity="0.1"/>
    <path id="Caminho_24" data-name="Caminho 24" d="M843.824,470.068l-1.814-2.993V455C845.6,461.665,843.824,470.068,843.824,470.068Z" transform="translate(-483.676 -316.902)" stroke="#4c4981" stroke-miterlimit="10" stroke-width="1" opacity="0.1"/>
    <ellipse id="Elipse_4" data-name="Elipse 4" cx="6.352" cy="11.586" rx="6.352" ry="11.586" transform="translate(309.666 159.062) rotate(-30)" fill="#fff"/>
    <path id="Caminho_25" data-name="Caminho 25" d="M745.244,504.56c3.2,5.542,7.127,9.244,4.09,11.005s-11.886.88-15.086-4.666-.295-13.206,2.742-14.967S742.039,499,745.244,504.56Z" transform="translate(-422.571 -339.609)" fill="#6c63ff"/>
    <path id="Caminho_26" data-name="Caminho 26" d="M747.018,387.962c0,17.71-12.119,34.776-29.829,34.776a32.069,32.069,0,1,1,0-64.138C734.9,358.618,747.018,370.248,747.018,387.962Z" transform="translate(-395.85 -262.938)" opacity="0.1"/>
    <circle id="Elipse_5" data-name="Elipse 5" cx="32.069" cy="32.069" r="32.069" transform="translate(289.27 94.799)" fill="#ae6e79"/>
    <path id="Caminho_27" data-name="Caminho 27" d="M697.328,344.081c3.817,1.4,6.075,5.349,9.5,7.545,4.842,3.081,11.146,2.285,16.675.762,3.081-.841,6.3-1.866,9.337-.933a2.641,2.641,0,0,0,1.422.2c.66-.189.986-.92,1.2-1.572,3.751-11.181,2.065-23.846-3.6-34.191a22.1,22.1,0,0,0-5.626-7.1,23.467,23.467,0,0,0-6.392-3.227,63.832,63.832,0,0,0-12.713-3.139,7.9,7.9,0,0,0-2.32-.075,9.714,9.714,0,0,0-2.958,1.255,30.277,30.277,0,0,1-13.145,3.57c-6.163.233-13.206-1.219-17.956,2.734-5.723,4.741-4.3,13.99-8.007,20.426-2.456,4.257-7.193,7.347-7.972,12.194a11.256,11.256,0,0,0,.277,4.433,18.038,18.038,0,0,0,16.728,13.369,6.347,6.347,0,0,0,3.416-.7,7.724,7.724,0,0,0,1.8-1.712C682.04,351.952,687.807,340.577,697.328,344.081Z" transform="translate(-378.807 -231.422)" fill="#3f4448"/>
    <path id="Caminho_28" data-name="Caminho 28" d="M735.447,389.524c-.216.652-.542,1.382-1.2,1.572a2.641,2.641,0,0,1-1.422-.2c-3.033-.933-6.273.092-9.332.933-5.533,1.523-11.85,2.338-16.675-.762-3.429-2.2-5.683-6.163-9.5-7.545-9.522-3.522-15.288,7.871-20.342,13.84a7.727,7.727,0,0,1-1.8,1.712,6.348,6.348,0,0,1-3.416.7A18.085,18.085,0,0,1,655.025,386.4c-.1-.44-.189-.88-.255-1.321a.213.213,0,0,1-.022.114,11.256,11.256,0,0,0,.277,4.433A18.042,18.042,0,0,0,671.753,403a6.348,6.348,0,0,0,3.416-.7,7.726,7.726,0,0,0,1.8-1.712c5.054-5.969,10.82-17.344,20.342-13.84,3.821,1.4,6.075,5.349,9.5,7.545,4.842,3.081,11.142,2.285,16.675.762,3.081-.841,6.3-1.866,9.332-.933a2.642,2.642,0,0,0,1.422.2c.66-.189.986-.92,1.2-1.572a39.745,39.745,0,0,0,1.972-14.2A39.087,39.087,0,0,1,735.447,389.524Z" transform="translate(-378.79 -274.106)" opacity="0.1"/>
  </g>
</svg>
