<svg id="figure_02" xmlns="http://www.w3.org/2000/svg" width="399.245" height="303.211" viewBox="0 0 399.245 303.211">
  <path id="Caminho_36" data-name="Caminho 36" d="M514.122,157.723c-17.548-69-78.18-118.811-149.351-120.809C327.147,35.858,287.554,48.336,258.728,92c-51.53,78.06,3.167,132,41.3,157.634a238.608,238.608,0,0,1,49.319,44.328C375.1,324.532,424.656,362.514,483.67,303,526.442,259.868,525.811,203.685,514.122,157.723Z" transform="translate(-171.026 -36.853)" fill="#e9e7f7"/>
  <path id="Caminho_37" data-name="Caminho 37" d="M719.6,364.262l36.108-36-36.108-36,11.009-10.972,47.117,46.97-47.117,46.97L719.6,364.262Z" transform="translate(-455.541 -178.072)" opacity="0.1"/>
  <path id="Caminho_38" data-name="Caminho 38" d="M494.6,427.825h14.678V413.147H494.6Zm73.684-14.678H553.606v14.678h14.678ZM524.1,427.825h14.678V413.147H524.1Z" transform="translate(-333.654 -275.065)" opacity="0.1"/>
  <path id="Caminho_39" data-name="Caminho 39" d="M284.125,363.262l-36.145-36,36.108-36L273.08,280.294,226,327.264l47.117,46.97Z" transform="translate(-143.069 -177.439)" opacity="0.1"/>
  <path id="Caminho_40" data-name="Caminho 40" d="M455.245,786.031c0,6.08-89.374,27.154-199.622,27.154S56,792.111,56,786.031s89.374,5.137,199.622,5.137S455.245,779.951,455.245,786.031Z" transform="translate(-56 -509.974)" fill="#3f3d56"/>
  <path id="Caminho_41" data-name="Caminho 41" d="M455.245,786.031c0,6.08-89.374,27.154-199.622,27.154S56,792.111,56,786.031s89.374,5.137,199.622,5.137S455.245,779.951,455.245,786.031Z" transform="translate(-56 -509.974)" opacity="0.1"/>
  <ellipse id="Elipse_6" data-name="Elipse 6" cx="199.622" cy="11.009" rx="199.622" ry="11.009" transform="translate(0 265.048)" fill="#3f3d56"/>
  <path id="Caminho_42" data-name="Caminho 42" d="M688.7,644.806c0,23.491,14.737,42.5,32.949,42.5" transform="translate(-456.526 -421.716)" fill="#3f3d56"/>
  <path id="Caminho_43" data-name="Caminho 43" d="M778.487,686.482c0-23.755,16.445-42.977,36.769-42.977" transform="translate(-513.368 -420.892)" fill="#6c63ff"/>
  <path id="Caminho_44" data-name="Caminho 44" d="M721.229,650.609c0,22.314,9.4,40.37,21.011,40.37" transform="translate(-477.121 -425.39)" fill="#6c63ff"/>
  <path id="Caminho_45" data-name="Caminho 45" d="M778.487,665.887c0-30.353,19.008-54.915,42.5-54.915" transform="translate(-513.368 -400.297)" fill="#3f3d56"/>
  <path id="Caminho_46" data-name="Caminho 46" d="M759.6,757.084s4.673-.144,6.081-1.147,7.188-2.2,7.537-.592,7.022,8,1.747,8.041-12.258-.822-13.663-1.678S759.6,757.084,759.6,757.084Z" transform="translate(-501.41 -491.195)" fill="#a8a8a8"/>
  <path id="Caminho_47" data-name="Caminho 47" d="M775.056,767.172c-5.275.042-12.258-.822-13.663-1.678-1.07-.652-1.5-2.992-1.64-4.071l-.156.006s.3,3.768,1.7,4.625,8.388,1.72,13.663,1.678c1.523-.012,2.049-.554,2.02-1.357C776.77,766.861,776.189,767.163,775.056,767.172Z" transform="translate(-501.41 -495.54)" opacity="0.2"/>
  <path id="Caminho_48" data-name="Caminho 48" d="M900.465,409.137s-11.3-8.578-12.156-5.434,8.29,10.291,8.29,10.291Z" transform="translate(-582.855 -268.648)" fill="#ffb9b9"/>
  <path id="Caminho_49" data-name="Caminho 49" d="M900.465,409.137s-11.3-8.578-12.156-5.434,8.29,10.291,8.29,10.291Z" transform="translate(-582.855 -268.648)" opacity="0.1"/>
  <path id="Caminho_50" data-name="Caminho 50" d="M950.406,345.7s-13.435,24.012-13.721,27.442-.286,3.716-1.429,3.43-16.865-2-18.294-1.429-4.288-3.43-4.288-3.43-5.431,5.431-4.288,6.575,4.575,1.715,5.146,3.145,1.429,2.859,4,2.573,20.01,4.574,22.3,3.716,2.858-2.287,4-2.287,3.43-1.143,3.43-1.429,8-15.436,8-15.436S964.7,347.982,950.406,345.7Z" transform="translate(-595.5 -232.365)" fill="#d0cde1"/>
  <path id="Caminho_51" data-name="Caminho 51" d="M950.406,345.7s-13.435,24.012-13.721,27.442-.286,3.716-1.429,3.43-16.865-2-18.294-1.429-4.288-3.43-4.288-3.43-5.431,5.431-4.288,6.575,4.575,1.715,5.146,3.145,1.429,2.859,4,2.573,20.01,4.574,22.3,3.716,2.858-2.287,4-2.287,3.43-1.143,3.43-1.429,8-15.436,8-15.436S964.7,347.982,950.406,345.7Z" transform="translate(-595.5 -232.365)" opacity="0.1"/>
  <path id="Caminho_52" data-name="Caminho 52" d="M958.066,294.547a23.779,23.779,0,0,0,.073,4.557c.434,3.284,1.946,6.708.518,9.773-.518,1.113-1.4,2.082-1.875,3.208-1.012,2.384-.095,5.028-.232,7.565a10.4,10.4,0,0,1-5.433,8.232,18.875,18.875,0,0,0,13.978-6.16c3.409-3.65,5.307-8.177,6.73-12.707a27.63,27.63,0,0,0,1.4-6.577,9.479,9.479,0,0,0-.443-3.811,14.522,14.522,0,0,0-1.96-3.348,13.2,13.2,0,0,0-2.99-3.317,12.01,12.01,0,0,0-6.6-2.044C958.7,290.116,958.172,292.8,958.066,294.547Z" transform="translate(-622.651 -197.046)" fill="#2f2e41"/>
  <path id="Caminho_53" data-name="Caminho 53" d="M992.792,324.041s3.144,11.148.572,14.293S1008.8,336.9,1008.8,336.9s-8.861-8.861-4.574-14.578Z" transform="translate(-649.034 -217.571)" fill="#ffb9b9"/>
  <path id="Caminho_54" data-name="Caminho 54" d="M992.792,324.041s3.144,11.148.572,14.293S1008.8,336.9,1008.8,336.9s-8.861-8.861-4.574-14.578Z" transform="translate(-649.034 -217.571)" opacity="0.1"/>
  <path id="Caminho_55" data-name="Caminho 55" d="M719.6,345.262l36.108-36-36.108-36,11.009-10.972,47.117,46.97-47.117,46.97L719.6,345.262Z" transform="translate(-455.541 -166.044)" fill="#6c63ff"/>
  <path id="Caminho_56" data-name="Caminho 56" d="M908.748,694.728v8.29l4.288,5.145,3.716-1.715-1.143-12.006Z" transform="translate(-575.28 -439.615)" fill="#ffb9b9"/>
  <path id="Caminho_57" data-name="Caminho 57" d="M947.082,749.359s-1.143-4-3.144-1.143-4,9.147-5.145,9.433-9.147,9.147-1.143,9.147,10.577-3.716,10.577-3.716,8-3.144,8-3.716-1.143-11.148-1.715-11.148-.858,2-2.287,2A37.061,37.061,0,0,1,947.082,749.359Z" transform="translate(-611.899 -486.527)" fill="#2f2e41"/>
  <path id="Caminho_58" data-name="Caminho 58" d="M960.448,698.13l-.286,7.718,6.86,2.858V697.558Z" transform="translate(-607.828 -441.587)" fill="#ffb9b9"/>
  <path id="Caminho_59" data-name="Caminho 59" d="M1016.376,751.37s-3.716-4-5.717-3.144a19.745,19.745,0,0,0-2.859,1.429s-1.143,3.716-1.715,6.86-.858,4.574-1.429,5.717-1.144,5.431,4.574,6,7.432-2.573,7.432-2.573l1.429-7.432S1017.521,751.37,1016.376,751.37Z" transform="translate(-656.326 -487.109)" fill="#2f2e41"/>
  <path id="Caminho_60" data-name="Caminho 60" d="M959.629,497.319s-8.29,18.58-7.146,35.446c0,0-2.858,6.575-1.143,16.865s4,30.872,4,30.872,7.718.858,8.29-.572c0,0,.572-14.293,1.143-14.864s-.286-13.721-1.143-16.294,8-28.014,8-28.014l-2.287-31.73Z" transform="translate(-622.445 -323.102)" fill="#2f2e41"/>
  <path id="Caminho_61" data-name="Caminho 61" d="M959.629,497.319s-8.29,18.58-7.146,35.446c0,0-2.858,6.575-1.143,16.865s4,30.872,4,30.872,7.718.858,8.29-.572c0,0,.572-14.293,1.143-14.864s-.286-13.721-1.143-16.294,8-28.014,8-28.014l-2.287-31.73Z" transform="translate(-622.445 -323.102)" opacity="0.1"/>
  <path id="Caminho_62" data-name="Caminho 62" d="M968.643,492.23l5.431,11.72s2.573,26.584,4,30.015c0,0,.572,9.719,3.144,12.863s4.574,30.872,4.574,30.872,7.146,2,7.718,0,2.287-15.722,2.287-15.722.572-11.72-2.573-19.438,3.716-35.446,3.716-35.446,7.146-13.435-3.144-24.3Z" transform="translate(-633.746 -319.157)" fill="#2f2e41"/>
  <circle id="Elipse_7" data-name="Elipse 7" cx="11.72" cy="11.72" r="11.72" transform="translate(338.327 86.46)" fill="#ffb9b9"/>
  <path id="Caminho_63" data-name="Caminho 63" d="M987.245,352.706s-12.292,0-14.007,1.429a2.28,2.28,0,0,1-3.144,0s-4.288.286-5.431,3.716-4.574,8-4.574,8-5.145,3.716-2.287,13.435.572,25.441.572,25.441-2.287,3.43,0,4.86,3.144,2,2.858,3.144,26.013-9.433,26.013-11.434-.572-3.716,0-4.574a4.079,4.079,0,0,0,.572-3.716c-.572-1.429.572-1.715.286-3.144s1.429-12.006,2.573-16.579S991.535,352.992,987.245,352.706Z" transform="translate(-626.336 -236.803)" fill="#d0cde1"/>
  <path id="Caminho_64" data-name="Caminho 64" d="M900.465,418.485s-11.3-8.578-12.156-5.434,8.29,10.291,8.29,10.291Z" transform="translate(-582.855 -274.566)" fill="#ffb9b9"/>
  <path id="Caminho_65" data-name="Caminho 65" d="M950.408,356.6s-13.435,24.012-13.721,27.442-.286,3.716-1.429,3.43-16.865-2-18.295-1.429-4.288-3.43-4.288-3.43-5.43,5.431-4.287,6.575,4.574,1.715,5.145,3.144,1.429,2.858,4,2.573,20.01,4.574,22.3,3.716,2.859-2.287,4-2.287,3.43-1.143,3.43-1.429,8-15.436,8-15.436S964.7,358.888,950.408,356.6Z" transform="translate(-595.502 -239.269)" fill="#d0cde1"/>
  <path id="Caminho_66" data-name="Caminho 66" d="M978.284,280.7a28.445,28.445,0,0,0-1.062-3.345,6.944,6.944,0,0,1,.791-5.393c1.681-2.715,4.982-3.918,7.283-6.131a4.137,4.137,0,0,0,1.695,2.816,20.338,20.338,0,0,1,2.589,2.172,8.506,8.506,0,0,1,1.508,3.054,10.733,10.733,0,0,1,.6,4.006,5.024,5.024,0,0,1-1.736,3.56c-.857.678-2.055,1.065-2.47,2.076a3.539,3.539,0,0,0-.138,1.567,31.635,31.635,0,0,1-.361,9.409c-.74,3.063-2.555,6.022-5.4,7.38a21.666,21.666,0,0,0,6.99-.262,7.335,7.335,0,0,0,5.217-4.284,22.675,22.675,0,0,1,.97-3.319c1.387-2.575,5.216-2.693,7.1-4.933a7.581,7.581,0,0,0,1.387-3.19c1.588-6.7.472-13.819-1.945-20.269a14.511,14.511,0,0,0-3.659-6.024,15.083,15.083,0,0,0-5.384-2.688,31.407,31.407,0,0,0-8.638-1.758,10.971,10.971,0,0,0-3.792.443,11.274,11.274,0,0,0-3.336,1.9c-4.616,3.592-7.759,9.332-7.342,15.166a21.241,21.241,0,0,0,3.669,9.843c.672,1.039,2.26,3.256,3.736,2.6C977.889,284.5,978.46,281.949,978.284,280.7Z" transform="translate(-634.04 -175.027)" fill="#2f2e41"/>
  <path id="Caminho_67" data-name="Caminho 67" d="M494.6,408.825h14.678V394.147H494.6Zm73.684-14.678H553.606v14.678h14.678ZM524.1,408.825h14.678V394.147H524.1Z" transform="translate(-333.654 -263.037)" fill="#6c63ff"/>
  <ellipse id="Elipse_8" data-name="Elipse 8" cx="12.35" cy="9.633" rx="12.35" ry="9.633" transform="translate(63.317 68.102)" fill="#2f2e41"/>
  <path id="Caminho_68" data-name="Caminho 68" d="M266.224,427.531s11.115.741,13.091-.741,10.374,1.976,11.115,3.952-11.856,2.223-13.833,2.223-11.362,2.964-11.362,2.964Z" transform="translate(-188.456 -283.474)" fill="#a0616a"/>
  <path id="Caminho_69" data-name="Caminho 69" d="M199.931,741.151s-5.18,13.063-2.478,14.64,31.082.451,31.082.451,4.73-2.928-.676-4.955c0,0-4.5-.225-7.433-2.027a43.065,43.065,0,0,1-6.306-5.18s-.225-4.955-2.027-3.829a4.629,4.629,0,0,0-2.027,3.153Z" transform="translate(-145.052 -482.031)" fill="#2f2e41"/>
  <path id="Caminho_70" data-name="Caminho 70" d="M199.931,741.151s-5.18,13.063-2.478,14.64,31.082.451,31.082.451,4.73-2.928-.676-4.955c0,0-4.5-.225-7.433-2.027a43.065,43.065,0,0,1-6.306-5.18s-.225-4.955-2.027-3.829a4.629,4.629,0,0,0-2.027,3.153Z" transform="translate(-145.052 -482.031)" opacity="0.1"/>
  <path id="Caminho_71" data-name="Caminho 71" d="M284.125,344.262l-36.145-36,36.108-36L273.08,261.294,226,308.264l47.117,46.97Z" transform="translate(-143.069 -165.411)" fill="#6c63ff"/>
  <path id="Caminho_72" data-name="Caminho 72" d="M177.62,751.863s-5.681,14.327-2.717,16.056,34.087.494,34.087.494,5.187-3.211-.741-5.434c0,0-4.94-.247-8.151-2.223a47.226,47.226,0,0,1-6.916-5.681s-.247-5.434-2.223-4.2a5.076,5.076,0,0,0-2.223,3.458Z" transform="translate(-130.729 -488.747)" fill="#2f2e41"/>
  <path id="Caminho_73" data-name="Caminho 73" d="M228.273,495.514l-3.458,31.123s-1.235,14.821-4.94,18.032c0,0,0,4.693-1.235,6.175l-1.729,19.514s2.47,7.163,2.223,8.4.988,5.187.741,5.681-11.856,0-11.856,0l2.47-39.769,7.657-55.33Z" transform="translate(-152.235 -323.298)" fill="#2f2e41"/>
  <path id="Caminho_74" data-name="Caminho 74" d="M228.273,495.514l-3.458,31.123s-1.235,14.821-4.94,18.032c0,0,0,4.693-1.235,6.175l-1.729,19.514s2.47,7.163,2.223,8.4.988,5.187.741,5.681-11.856,0-11.856,0l2.47-39.769,7.657-55.33Z" transform="translate(-152.235 -323.298)" opacity="0.1"/>
  <path id="Caminho_75" data-name="Caminho 75" d="M199.948,492.4s-2.717,25.442-3.952,30.876a70.252,70.252,0,0,0-1.482,10.868s-.247,7.9-2.47,10.127a6.677,6.677,0,0,0-1.976,4.94s-2.223,24.948-.988,27.912,2.47,5.434,1.235,7.41-14.821,1.976-14.821.494,0-2.717-.741-3.458,0-5.434,0-5.434-2.964-21.984-.247-28.406,3.952-23.96,3.952-23.96-1.976-20.008-4.446-23.219.494-14.574.494-14.574Z" transform="translate(-130.085 -321.168)" fill="#2f2e41"/>
  <path id="Caminho_76" data-name="Caminho 76" d="M227.436,275.908a3.32,3.32,0,0,0,1.6,1.363c3.627,2,6.662,4.895,9.653,7.758a11.332,11.332,0,0,1,.45-7.664,3.951,3.951,0,0,0,.57-2.58,3.212,3.212,0,0,0-1.253-1.5,38.84,38.84,0,0,0-3.82-2.606c-.925-.553-2.826-2.026-3.888-1.866a9.859,9.859,0,0,1-.713,4.056C229.887,273.189,227.546,276.158,227.436,275.908Z" transform="translate(-164.527 -183.688)" fill="#a0616a"/>
  <circle id="Elipse_9" data-name="Elipse 9" cx="10.127" cy="10.127" r="10.127" transform="translate(65.417 75.141)" fill="#a0616a"/>
  <path id="Caminho_77" data-name="Caminho 77" d="M201.058,303.4s1.729-8.645-3.211-11.609-10.621-6.422-10.621-6.422-1.729-.247-2.47,3.458c0,0-14.08,2.717-15.562,16.056s.988,32.852.988,32.852-2.223,17.044-4.94,26.183c0,0-2.223,1.976,7.657-.988s27.171,8.4,27.171,8.4,1.729-1.729,1.729-2.964,1.976-8.4,1.976-8.4,1.729-30.382,2.47-33.84S203.281,303.9,201.058,303.4Z" transform="translate(-125.02 -194.175)" fill="#575a89"/>
  <path id="Caminho_78" data-name="Caminho 78" d="M236.268,236.667a4.223,4.223,0,0,1,1.986-.529,3.78,3.78,0,0,0,1.965-.585c.957-.734,1.027-2.154,1.727-3.136,1.013-1.422,3.035-1.593,4.779-1.522a5.3,5.3,0,0,0,3.115-.47,4.678,4.678,0,0,0,1.652-2.76c.368-1.243.606-2.764-.306-3.686-.633-.64-1.632-.767-2.335-1.329a6.171,6.171,0,0,1-1.425-2.377,6.425,6.425,0,0,0-2.069-2.591,7.91,7.91,0,0,0-4.636-1.111,36.3,36.3,0,0,1-4.84.031,14.789,14.789,0,0,0-3.932-.406,5.622,5.622,0,0,0-3.87,2.978,16.636,16.636,0,0,0-1.517,4.8l-.93,4.491a11.851,11.851,0,0,0-.355,4.228c.462,2.912,3.037,5.227,3.215,8.171a5.016,5.016,0,0,1,3.061-3.64.958.958,0,0,1,.624-.076c.256.082.405.337.567.552.423.563,1.752,1.416,2.506,1.017C235.923,238.362,235.42,237.241,236.268,236.667Z" transform="translate(-163.11 -150.355)" fill="#2f2e41"/>
  <path id="Caminho_79" data-name="Caminho 79" d="M185.489,393.394s-1.729,10.868,5.434,9.88c0,0,3.705-.494,4.2,0s18.773-2.717,21.243-5.434c0,0,2.964-.988,4.446.494s16.3,2.964,11.856-1.482-11.362-5.434-11.362-5.434l-9.386.494s-4.94,1.482-7.9,0-11.362-.988-11.362-.988Z" transform="translate(-137.856 -260.947)" fill="#a0616a"/>
  <path id="Caminho_80" data-name="Caminho 80" d="M194.227,304.226s-11.115,1.235-11.115,17.291v20.5s6.175-2.717,7.41-2.47,6.175-3.211,6.175-3.211,5.681-13.339,5.187-17.044S201.638,304.72,194.227,304.226Z" transform="translate(-136.468 -206.113)" fill="#575a89"/>
  <ellipse id="Elipse_10" data-name="Elipse 10" cx="9.51" cy="4.94" rx="9.51" ry="4.94" transform="translate(66.034 74.03)" fill="#2f2e41"/>
  <ellipse id="Elipse_11" data-name="Elipse 11" cx="3.335" cy="8.275" rx="3.335" ry="8.275" transform="translate(63.317 71.559)" fill="#2f2e41"/>
</svg>
